<svg id="Layer_1" data-name="Layer 1" xmlns="http://www.w3.org/2000/svg" xmlns:xlink="http://www.w3.org/1999/xlink" viewBox="0 0 595.28 841.89"><defs><style>.cls-1{fill:none;}.cls-2{fill:#fff;}.cls-3{clip-path:url(#clip-path);}.cls-4{fill:#17f0e4;opacity:0.87;}.cls-4,.cls-5{isolation:isolate;}.cls-5{fill:#874bef;opacity:0.67;}.cls-6{clip-path:url(#clip-path-2);}</style><clipPath id="clip-path"><rect class="cls-1" x="-615.28" y="-863.41" width="595.28" height="841.89"/></clipPath><clipPath id="clip-path-2"><rect class="cls-1" width="595.28" height="841.89" transform="translate(595.28 841.89) rotate(-180)"/></clipPath></defs><title>Middle Background - Right</title><rect class="cls-2" y="1.82" width="595.28" height="841.89"/><g class="cls-3"><g id="Group_667" data-name="Group 667"><path id="Path_490" data-name="Path 490" class="cls-4" d="M284.41-93.61c17.5-49.54-23.47-117.16-62.74-140.83S124.32-222.06,95-250.21c-7.3-7-114.19-47.83-174.78,72.12C-121.74-94.95-69.9,21,17.93,52,64.1,68.29,103.36,4.26,162.81-21.37,216.55-44.52,269.66-51.85,284.41-93.61Z"/><path id="Path_488" data-name="Path 488" class="cls-5" d="M-318.32,11.85c-43,98.45,57.18,184.94,155.63,228s220,30.9,263-67.55c19.42-44.47,27.42-59.53-3.08-111.12C62.87,3,54.33-109.84.35-133.42-51.41-156-101.9-85.64-172.43-61.12-236.17-39-297.87-35-318.32,11.85Z"/></g></g><g class="cls-6"><path id="Path_516" data-name="Path 516" class="cls-5" d="M537.48,132.89c0-64.52,45-88,83.19-88.06S689.93,97.16,690,161.68s-31,127.76-69.22,127.77c-20.09,0-26.55-50.88-46.06-81.33C557,180.61,537.48,163.57,537.48,132.89Z"/></g></svg>