<svg id="Layer_1" data-name="Layer 1" xmlns="http://www.w3.org/2000/svg" xmlns:xlink="http://www.w3.org/1999/xlink" viewBox="0 0 595.28 841.89"><defs><style>.cls-1{fill:none;}.cls-2{fill:#fff;}.cls-3{clip-path:url(#clip-path);}.cls-4{fill:#17f0e4;opacity:0.87;}.cls-4,.cls-5{isolation:isolate;}.cls-5{fill:#874bef;opacity:0.67;}.cls-6{clip-path:url(#clip-path-2);}</style><clipPath id="clip-path"><rect class="cls-1" x="-615.28" width="595.28" height="841.89"/></clipPath><clipPath id="clip-path-2"><rect class="cls-1" width="595.28" height="841.89" transform="translate(595.27 841.89) rotate(-180)"/></clipPath></defs><title>Top Background</title><rect class="cls-2" width="595.28" height="841.89"/><g class="cls-3"><g id="Group_667" data-name="Group 667"><path id="Path_490" data-name="Path 490" class="cls-4" d="M284.41,769.79c17.5-49.54-23.47-117.15-62.74-140.82S124.32,641.35,95,613.2c-7.3-7-114.19-47.83-174.78,72.11-42,83.15,9.84,199.05,97.67,230.08C64.1,931.7,103.36,867.66,162.81,842,216.55,818.89,269.66,811.56,284.41,769.79Z"/><path id="Path_488" data-name="Path 488" class="cls-5" d="M-318.32,875.26c-43,98.45,57.18,184.94,155.63,228s220,30.9,263-67.55c19.42-44.48,27.42-59.53-3.08-111.12C62.87,866.38,54.33,753.56.35,730c-51.76-22.61-102.25,47.77-172.78,72.29C-236.17,824.44-297.87,828.45-318.32,875.26Z"/></g></g><g class="cls-6"><g id="Group_667-2" data-name="Group 667"><path id="Path_490-2" data-name="Path 490" class="cls-4" d="M-304.41,72.1c-17.5,49.54,23.47,117.15,62.74,140.82s97.35-12.38,126.63,15.77c7.3,7,114.19,47.83,174.78-72.11,42-83.15-9.84-199-97.67-230.08C-84.1-89.81-123.36-25.77-182.81-.15-236.55,23-289.66,30.33-304.41,72.1Z"/><path id="Path_488-2" data-name="Path 488" class="cls-5" d="M298.32-33.37c43-98.45-57.18-184.94-155.63-227.95s-220-30.9-263,67.55c-19.43,44.48-27.42,59.53,3.08,111.12,34.38,58.16,42.92,171,96.9,194.55C31.4,134.51,81.9,64.13,152.43,39.61,216.17,17.45,277.87,13.44,298.32-33.37Z"/></g></g></svg>