<svg id="Layer_1" data-name="Layer 1" xmlns="http://www.w3.org/2000/svg" xmlns:xlink="http://www.w3.org/1999/xlink" viewBox="0 0 595.28 841.89"><defs><style>.cls-1{fill:none;}.cls-2{fill:#fff;}.cls-3{clip-path:url(#clip-path);}.cls-4{fill:#17f0e4;opacity:0.87;}.cls-4,.cls-5{isolation:isolate;}.cls-5{fill:#874bef;opacity:0.67;}</style><clipPath id="clip-path"><rect class="cls-1" width="595.28" height="841.89"/></clipPath></defs><title>Bottom Background</title><rect class="cls-2" x="-1.26" width="595.28" height="841.89"/><g class="cls-3"><g class="cls-3"><g id="Group_667" data-name="Group 667"><path id="Path_490" data-name="Path 490" class="cls-4" d="M898.77,781.49C916.27,732,875.3,664.34,836,640.67S738.68,653.05,709.4,624.9c-7.3-7-114.19-47.83-174.78,72.11-42,83.15,9.84,199,97.67,230.07,46.17,16.31,85.43-47.72,144.88-73.34C830.91,830.58,884,823.25,898.77,781.49Z"/><path id="Path_488" data-name="Path 488" class="cls-5" d="M296,887c-43,98.45,57.18,184.93,155.63,227.94s220,30.9,263-67.55c19.42-44.47,27.42-59.53-3.08-111.12-34.38-58.16-42.92-171-96.9-194.55C563,719.07,512.46,789.46,441.93,814,378.19,836.14,316.49,840.14,296,887Z"/></g></g></g></svg>